<?xml version="1.0" standalone="no"?>
<!DOCTYPE svg PUBLIC "-//W3C//DTD SVG 20010904//EN"
 "http://www.w3.org/TR/2001/REC-SVG-20010904/DTD/svg10.dtd">
<svg version="1.0" xmlns="http://www.w3.org/2000/svg"
 width="500.000000pt" height="500.000000pt" viewBox="0 0 500.000000 500.000000"
 preserveAspectRatio="xMidYMid meet">

<g transform="translate(0.000000,500.000000) scale(0.100000,-0.100000)"
fill="#c2c2c2" stroke="none">
<path d="M4625 4817 c-18 -14 -39 -115 -29 -141 5 -13 65 -40 111 -50 42 -10
71 7 90 51 18 45 10 79 -30 121 -26 27 -38 32 -77 32 -25 0 -54 -6 -65 -13z"/>
<path d="M4134 4722 c-6 -4 -19 -24 -29 -45 -10 -22 -40 -63 -68 -93 -39 -43
-47 -57 -38 -68 9 -11 9 -15 -1 -20 -7 -3 -3 -3 10 0 13 3 45 0 73 -6 43 -11
53 -10 86 7 49 25 73 72 73 144 0 41 -5 60 -18 72 -19 17 -68 22 -88 9z"/>
<path d="M4327 4401 c-46 -63 -52 -129 -15 -155 34 -24 89 -20 128 9 39 29 50
43 50 68 0 19 -86 107 -106 107 -7 0 -14 5 -16 11 -2 7 -21 -11 -41 -40z"/>
<path d="M3977 4093 c-42 -32 -44 -42 -19 -73 15 -18 22 -21 38 -12 26 14 58
51 72 85 11 26 11 27 -22 27 -20 0 -46 -10 -69 -27z"/>
<path d="M3107 3962 c-15 -15 -27 -31 -27 -35 0 -3 17 -9 37 -13 31 -6 39 -3
55 16 47 58 -12 87 -65 32z"/>
<path d="M3542 3890 c-70 -33 -76 -43 -87 -142 l-7 -66 78 -41 c78 -41 79 -41
104 -23 40 30 62 80 56 132 -10 88 -27 148 -44 154 -9 3 -21 8 -27 11 -5 3
-38 -8 -73 -25z"/>
<path d="M4257 3776 c-55 -20 -65 -32 -76 -89 -22 -120 -22 -125 9 -147 64
-46 128 -12 150 80 12 51 10 69 -17 133 -18 42 -15 41 -66 23z"/>
<path d="M3674 3435 c-4 -16 0 -35 11 -52 l18 -27 18 23 c11 13 19 36 19 52 0
26 -4 29 -30 29 -23 0 -31 -5 -36 -25z"/>
<path d="M4472 3417 c-26 -28 -29 -82 -6 -115 39 -56 74 -2 54 83 -7 30 -16
55 -20 55 -4 0 -16 -10 -28 -23z"/>
<path d="M2590 3406 c-51 -25 -86 -71 -96 -123 -9 -49 33 -92 92 -95 70 -2
105 35 95 102 -13 84 -17 95 -35 93 -14 -1 -17 4 -13 23 2 13 4 24 3 24 0 0
-21 -11 -46 -24z"/>
<path d="M3138 3367 c-24 -38 -58 -118 -58 -136 0 -10 56 -41 75 -41 9 0 30
14 47 30 28 29 30 35 24 80 -8 62 -27 104 -46 107 -8 2 -27 -16 -42 -40z"/>
<path d="M3994 3115 c-60 -19 -91 -42 -103 -77 -14 -39 -14 -88 -1 -88 6 0 30
-18 54 -40 53 -49 83 -51 132 -8 l36 32 -7 81 c-9 106 -30 125 -111 100z"/>
<path d="M3450 3037 c-25 -24 -54 -48 -64 -54 -14 -8 -20 -25 -24 -67 -4 -54
-4 -56 19 -54 20 3 23 -1 21 -19 -5 -34 21 -29 67 12 54 49 66 82 55 157 -5
34 -13 63 -19 64 -5 2 -30 -16 -55 -39z"/>
<path d="M4277 3044 c-33 -31 -37 -39 -37 -84 0 -41 4 -52 23 -64 38 -24 93
-39 118 -33 44 12 52 24 57 81 4 55 4 58 -35 94 -50 48 -79 49 -126 6z"/>
<path d="M1384 3033 c-24 -38 -25 -106 -1 -111 24 -5 51 60 42 105 -7 40 -17
42 -41 6z"/>
<path d="M3107 3024 c-17 -23 -18 -27 -2 -50 22 -34 37 -26 57 29 l18 47 -28
0 c-17 -1 -34 -10 -45 -26z"/>
<path d="M2751 2860 c-56 -108 -38 -164 57 -177 33 -4 44 -1 72 24 26 24 33
38 37 79 4 46 3 51 -34 85 -21 20 -52 39 -70 42 -30 6 -33 4 -62 -53z m79 30
c0 -5 -7 -7 -15 -4 -8 4 -15 8 -15 10 0 2 7 4 15 4 8 0 15 -4 15 -10z"/>
<path d="M3136 2720 c-40 -12 -66 -39 -66 -67 0 -36 31 -124 41 -117 5 3 12
-2 15 -11 7 -18 42 -16 111 6 66 21 66 122 0 165 -42 29 -66 34 -101 24z"/>
<path d="M3921 2672 c-37 -18 -60 -46 -48 -58 7 -7 97 29 125 50 11 8 11 11 0
17 -20 13 -40 11 -77 -9z"/>
<path d="M2083 2559 c-51 -15 -78 -69 -54 -108 8 -12 14 -13 36 -3 24 11 41
40 59 100 8 24 6 25 -41 11z"/>
<path d="M3590 2555 c-14 -8 -43 -20 -65 -26 -54 -15 -105 -70 -105 -114 0
-29 7 -40 46 -70 54 -41 98 -46 137 -15 35 28 48 72 45 155 -4 86 -12 96 -58
70z"/>
<path d="M4109 2523 c-1 -5 -1 -11 0 -15 0 -4 -5 -5 -13 -2 -18 7 -131 -126
-158 -184 -18 -39 -19 -51 -8 -110 12 -72 28 -91 75 -92 36 0 115 60 138 105
22 42 19 281 -3 295 -18 12 -30 13 -31 3z m29 -28 c-3 -3 -9 2 -12 12 -6 14
-5 15 5 6 7 -7 10 -15 7 -18z"/>
<path d="M4385 2392 c-37 -42 -63 -106 -65 -155 0 -10 11 -29 25 -42 19 -20
34 -25 75 -25 62 0 85 11 105 51 23 43 11 113 -29 166 -19 26 -37 40 -45 37
-8 -2 -17 0 -20 5 -3 5 -24 -12 -46 -37z"/>
<path d="M2701 2417 c-49 -25 -66 -129 -28 -173 21 -24 28 -26 68 -20 38 6 52
14 83 51 20 25 32 45 26 45 -14 0 -13 30 3 31 6 0 -4 8 -23 17 -20 9 -49 27
-64 40 -33 26 -33 26 -65 9z"/>
<path d="M2270 2277 c-28 -10 -37 -19 -44 -49 -10 -41 -4 -60 38 -111 24 -30
66 -38 114 -23 24 8 64 79 56 100 -3 8 0 17 6 21 6 4 -6 20 -32 41 -46 37 -78
41 -138 21z"/>
<path d="M3045 2241 c-89 -41 -114 -105 -72 -187 41 -81 49 -83 90 -20 20 30
54 69 77 87 32 26 40 39 40 65 0 40 -33 74 -69 73 -14 0 -44 -9 -66 -18z"/>
<path d="M1592 2233 c-13 -3 -32 -19 -43 -36 -38 -64 0 -177 61 -177 63 0 196
110 167 139 -8 8 -8 11 1 11 28 0 9 28 -33 48 -43 21 -95 26 -153 15z"/>
<path d="M2370 1963 c-33 -13 -60 -59 -60 -101 0 -23 11 -38 61 -76 l61 -48
40 18 c52 23 68 50 78 126 7 61 -1 95 -21 82 -5 -3 -9 -1 -9 5 0 14 -114 9
-150 -6z"/>
<path d="M1863 1899 c-11 -4 -60 -14 -108 -23 -100 -17 -119 -30 -159 -111
-32 -65 -32 -75 -4 -110 21 -27 24 -27 95 -22 85 6 106 19 183 115 60 75 88
124 66 116 -7 -3 -22 6 -33 19 -14 18 -24 22 -40 16z"/>
<path d="M1930 1901 c0 -6 4 -13 10 -16 6 -3 7 1 4 9 -7 18 -14 21 -14 7z"/>
<path d="M3658 1848 c-35 -21 -48 -36 -48 -53 0 -62 30 -72 79 -26 19 18 31
39 31 54 0 14 3 32 6 41 9 24 -15 19 -68 -16z"/>
<path d="M3165 1813 c-111 -29 -177 -186 -95 -228 55 -28 76 -21 124 45 57 78
62 93 41 146 -17 44 -25 48 -70 37z"/>
<path d="M2057 1781 c-9 -16 -17 -44 -17 -61 l0 -32 43 38 c48 44 55 77 17 82
-19 2 -30 -4 -43 -27z"/>
<path d="M2756 1749 c-20 -16 -26 -29 -26 -60 0 -21 4 -39 9 -39 11 0 81 77
81 90 0 5 -9 14 -19 19 -14 8 -25 6 -45 -10z"/>
<path d="M2454 1480 c-30 -12 -82 -78 -90 -114 -5 -24 -2 -34 19 -52 26 -22
27 -22 78 -6 43 14 55 23 66 51 8 18 25 51 39 72 13 21 24 43 24 49 0 12 -106
12 -136 0z"/>
<path d="M1020 1450 c-41 -44 -56 -85 -39 -111 17 -25 129 -65 139 -49 4 6 14
8 22 5 13 -5 17 6 23 59 6 58 4 69 -15 96 -18 25 -28 30 -62 30 -31 0 -46 -6
-68 -30z"/>
<path d="M2050 1420 c-14 -4 -42 -8 -63 -9 -45 -1 -112 -43 -121 -74 -16 -59
-7 -88 37 -128 55 -50 87 -51 133 -4 19 20 34 39 34 43 0 4 5 36 10 72 6 46 6
66 -2 71 -9 6 -8 12 1 23 15 17 9 18 -29 6z"/>
<path d="M3655 1382 c-86 -58 -117 -101 -113 -157 3 -37 6 -41 43 -53 22 -7
55 -20 73 -28 32 -15 82 -12 82 4 0 4 16 25 35 47 19 22 38 51 41 63 7 24 -10
97 -24 106 -4 2 -26 1 -50 -4 -31 -5 -42 -4 -42 5 0 15 22 25 56 25 13 0 24 5
24 10 0 6 -9 10 -20 10 -11 0 -20 5 -20 10 0 16 -11 11 -85 -38z"/>
<path d="M1466 1391 c-3 -5 -21 -12 -40 -15 -77 -15 -115 -81 -94 -162 24 -87
81 -123 131 -84 24 19 27 28 27 83 0 34 7 83 14 109 13 42 13 48 -3 62 -20 18
-28 20 -35 7z"/>
<path d="M4337 1274 c-35 -19 -31 -36 12 -48 36 -10 51 1 51 42 0 26 -22 28
-63 6z"/>
<path d="M2811 1233 c-44 -42 -47 -66 -13 -104 l29 -33 44 26 c54 32 111 90
107 109 -4 20 -26 28 -85 28 -44 1 -57 -3 -82 -26z"/>
<path d="M980 979 c-19 -10 -42 -18 -51 -19 -9 0 -24 -9 -34 -20 -22 -24 -16
-101 9 -129 25 -27 100 -45 129 -30 38 20 67 52 67 75 0 25 -46 129 -57 129
-5 0 -13 3 -18 7 -6 3 -26 -2 -45 -13z"/>
<path d="M2426 846 c-43 -13 -86 -65 -86 -102 0 -11 14 -40 30 -62 44 -60 79
-55 175 24 37 31 42 40 29 47 -11 6 -12 12 -4 22 8 10 -1 21 -40 49 -27 20
-53 36 -58 35 -4 -1 -25 -7 -46 -13z"/>
<path d="M1755 771 l-40 -6 48 -33 c57 -40 91 -40 95 0 3 22 -2 30 -23 38 -14
5 -29 9 -33 9 -4 -1 -25 -5 -47 -8z"/>
<path d="M2925 713 c-27 -15 -49 -71 -39 -99 15 -40 45 -73 74 -79 47 -10 116
37 135 94 19 57 19 58 -5 36 -29 -26 -38 -9 -10 20 13 14 20 28 16 32 -12 13
-145 9 -171 -4z"/>
<path d="M3715 719 c-11 -5 -30 -25 -43 -44 l-22 -35 43 0 c62 0 99 44 65 78
-14 14 -16 14 -43 1z"/>
<path d="M1252 660 c-39 -28 -41 -32 -31 -57 35 -94 176 -147 234 -88 19 18
25 35 25 65 0 41 -1 42 -62 69 -100 45 -117 46 -166 11z"/>
<path d="M408 494 c-16 -8 -37 -33 -49 -56 -18 -36 -20 -47 -10 -79 20 -66 98
-103 132 -63 7 8 29 24 48 34 20 11 30 19 24 20 -18 0 -16 18 2 22 13 2 11 12
-11 53 -43 83 -78 101 -136 69z"/>
<path d="M830 483 c-26 -34 -21 -71 16 -120 59 -78 121 -88 196 -33 26 19 47
41 47 48 1 6 8 12 17 12 29 0 4 17 -51 35 -31 9 -79 33 -107 51 -61 41 -90 43
-118 7z"/>
<path d="M131 352 c-7 -13 -15 -47 -18 -76 -6 -57 4 -70 46 -59 23 6 26 21 11
67 -5 17 -13 44 -18 61 l-9 30 -12 -23z"/>
</g>
</svg>
